<svg width="175" height="35" viewBox="0 0 175 35" fill="none" xmlns="http://www.w3.org/2000/svg">
<path d="M46.9155 27.7789V34.0586H42.9748V13.6189H46.9155V14.5961C48.0113 13.8847 49.4046 13.4115 50.8561 13.4115C55.3294 13.4115 58.6179 16.9663 58.6179 21.2018C58.6179 25.4077 55.3591 28.9922 50.8561 28.9922C49.3453 28.9931 48.0123 28.5189 46.9155 27.7789ZM46.9155 19.3364V22.9505C47.5973 24.3426 48.9599 25.2614 50.5597 25.2614C52.8709 25.2614 54.6782 23.484 54.6782 21.2028C54.6782 18.8918 52.9006 17.1441 50.5893 17.1441C48.9895 17.1441 47.5973 18.0036 46.9155 19.3364Z" fill="#083E9E"/>
<path d="M60.7494 9.49843C60.7494 8.19526 61.697 7.21716 62.9717 7.21716C64.2454 7.21716 65.2829 8.1943 65.2829 9.49843C65.2829 10.7423 64.2463 11.7797 62.9717 11.7797C61.697 11.7787 60.7494 10.7423 60.7494 9.49843ZM60.9865 13.6183H64.9864V28.7553H60.9865V13.6183Z" fill="#083E9E"/>
<path d="M67.3549 21.1431C67.3549 16.9658 70.6138 13.4416 75.1167 13.4416C76.5979 13.4416 77.9606 13.8269 79.1166 14.4484V13.6185H83.0277V27.896C83.0277 31.8361 79.6206 33.9682 75.3548 33.9682C72.5702 33.9682 69.9033 33.1393 68.1553 31.7759L69.7847 28.9621C71.2363 29.9392 73.2214 30.5616 75.3548 30.5616C78.1097 30.5616 78.9694 29.4659 79.088 27.6885C77.9032 28.4295 76.5405 28.8732 75.1177 28.8732C70.5841 28.8741 67.3549 25.4972 67.3549 21.1431ZM79.1166 22.8315V19.4546C78.4348 18.0328 77.0129 17.0844 75.4131 17.0844C73.1019 17.0844 71.2946 18.9211 71.2946 21.1431C71.2946 23.4836 73.0723 25.1128 75.3835 25.1128C77.0722 25.1118 78.4052 24.2533 79.1166 22.8315Z" fill="#083E9E"/>
<path d="M85.3951 21.1431C85.3951 16.9658 88.6539 13.4416 93.1568 13.4416C94.638 13.4416 96.0006 13.8269 97.1567 14.4484V13.6185H101.068V27.896C101.068 31.8361 97.6606 33.9682 93.3949 33.9682C90.6103 33.9682 87.9434 33.1393 86.1954 31.7759L87.8249 28.9621C89.2764 29.9392 91.2615 30.5616 93.3949 30.5616C96.1498 30.5616 97.0095 29.4659 97.128 27.6885C95.9433 28.4295 94.5806 28.8732 93.1578 28.8732C88.6243 28.8741 85.3951 25.4972 85.3951 21.1431ZM97.1567 22.8315V19.4546C96.4749 18.0328 95.053 17.0844 93.4532 17.0844C91.142 17.0844 89.3347 18.9211 89.3347 21.1431C89.3347 23.4836 91.1124 25.1128 93.4236 25.1128C95.1123 25.1118 96.4453 24.2533 97.1567 22.8315Z" fill="#083E9E"/>
<path d="M106.812 13.6183L110.782 23.7195L114.871 13.6183H119.019L110.309 34.0578H106.606L108.798 28.6071L102.429 13.6183H106.812Z" fill="#083E9E"/>
<path d="M118.276 13.6183H122.512L126.364 23.838L130.186 13.6183H134.334L128.261 28.7553H124.29L118.276 13.6183Z" fill="#083E9E"/>
<path d="M134.627 21.0841C134.627 16.8189 137.678 13.2937 142.448 13.2937C146.862 13.2937 150.21 16.6114 150.299 20.9655C150.329 21.3212 150.329 21.7065 150.299 22.0909H138.359C138.478 24.224 140.522 25.616 142.714 25.616C144.521 25.616 145.588 25.1122 146.833 24.0758L148.996 26.357C147.248 28.1937 145.5 29.0523 142.715 29.0523C137.589 29.0523 134.627 25.2307 134.627 21.0841ZM138.567 19.2771H146.21C145.825 17.8553 144.462 16.6114 142.388 16.6114C139.989 16.6114 138.982 17.8257 138.567 19.2771Z" fill="#083E9E"/>
<path d="M151.126 27.1262L153.052 23.9863C154.77 25.1117 156.815 25.7934 158.917 25.7934C160.902 25.7934 161.909 25.2895 161.909 24.4309C161.909 23.8678 161.435 23.4538 160.428 23.2463L156.28 22.3581C153.229 21.706 151.836 20.2546 151.836 17.8854C151.836 15.368 153.97 13.2646 158.384 13.2646C161.05 13.2646 163.42 14.0352 165.05 15.042L163.242 18.0633C161.909 17.3519 160.132 16.5823 158.265 16.5823C156.576 16.5823 155.599 16.9972 155.599 17.7669C155.599 18.2707 155.955 18.5968 156.932 18.7736L160.428 19.4257C164.221 20.1667 165.672 21.8552 165.672 24.1355C165.672 27.4235 162.384 29.1416 158.799 29.1416C155.926 29.1407 153.615 28.5479 151.126 27.1262Z" fill="#083E9E"/>
<path d="M166.471 13.6185H168.723V9.44229L172.663 6.89522V13.6195H174.974V17.0557H172.662V28.7565H168.722V17.0548H166.47L166.471 13.6185Z" fill="#083E9E"/>
<path d="M33.1176 16.0529C33.0468 15.0824 32.8996 14.133 32.6462 13.198C31.5207 9.03508 29.1501 5.7719 25.5279 3.4371C23.2215 1.93793 20.6683 1.10803 17.9182 0.890036C16.7716 0.805898 15.6394 0.840318 14.4996 0.981821C13.2967 1.1434 12.1291 1.4245 10.9969 1.83275C6.00343 3.64744 2.16222 7.77494 0.727858 12.8949C0.418037 13.9992 0.235395 15.1245 0.15794 16.2709C0.122559 16.8618 0.122559 17.4526 0.122559 18.0435V32.4042C0.122559 33.1777 0.748895 33.8106 1.52919 33.8106H7.07824C7.80307 33.8106 8.40072 33.2551 8.47817 32.5514C8.47817 32.5514 8.47817 32.5514 8.47817 32.5447C8.51355 32.4109 8.53459 32.2703 8.53459 32.1298V31.799C8.53459 31.7712 8.5279 31.7502 8.53459 31.7215V31.7005C8.58336 31.7072 8.61205 31.7359 8.63978 31.7502C10.7425 32.9033 12.9868 33.5783 15.3784 33.7618C16.3212 33.8326 17.2708 33.8249 18.227 33.7341C19.0781 33.65 19.9224 33.5161 20.7591 33.2981C24.3537 32.3487 27.3218 30.4289 29.6359 27.5032C31.6268 24.9858 32.7657 22.1088 33.0899 18.9164C33.1883 17.9584 33.195 17.009 33.1176 16.0529ZM19.5858 25.2296C19.5648 25.3347 19.4807 25.4055 19.3745 25.4055H13.9163C13.8178 25.4055 13.726 25.3347 13.705 25.2296L13.6983 25.1942V24.9905C13.6983 24.7305 13.726 24.4915 13.7824 24.2448C13.8178 24.1606 13.8388 24.0622 13.8742 23.9704C13.902 23.8786 13.945 23.7945 13.9794 23.7027C14.0282 23.6185 14.0712 23.5334 14.12 23.457C14.1477 23.4149 14.1697 23.3795 14.1974 23.3374C14.2462 23.26 14.3103 23.1826 14.3667 23.1128C14.4298 23.0353 14.4929 22.9655 14.557 22.8948C14.8802 22.5783 15.2818 22.3249 15.7246 22.1844C15.1193 21.8612 14.7119 21.2139 14.7119 20.4825C14.7119 19.4136 15.5773 18.5483 16.6464 18.5416C17.1809 18.5416 17.6667 18.7663 18.0176 19.1115C18.3695 19.4633 18.5875 19.9481 18.5875 20.4825C18.5875 21.2139 18.1725 21.8612 17.5749 22.1844C18.7491 22.5716 19.6002 23.6749 19.6002 24.9905C19.5992 25.068 19.5925 25.1531 19.5858 25.2296ZM29.0249 13.3031H4.26594C4.06896 13.3031 3.92839 13.1062 3.9915 12.9159C5.82748 7.70514 10.7999 3.96295 16.6454 3.96295C22.4909 3.96295 27.4633 7.70419 29.2984 12.9159C29.3624 13.1062 29.2219 13.3031 29.0249 13.3031Z" fill="#083E9E"/>
</svg>