<svg width="192" height="37" viewBox="0 0 192 37" fill="none" xmlns="http://www.w3.org/2000/svg">
<path d="M52.0227 29.7482V36.6058H47.7194V14.2853H52.0227V15.3524C53.2194 14.5756 54.7408 14.0588 56.326 14.0588C61.2109 14.0588 64.802 17.9407 64.802 22.566C64.802 27.1589 61.2433 31.0732 56.326 31.0732C54.6761 31.0742 53.2204 30.5564 52.0227 29.7482ZM52.0227 20.529V24.4756C52.7672 25.9958 54.2553 26.9992 56.0023 26.9992C58.5262 26.9992 60.4998 25.0582 60.4998 22.567C60.4998 20.0435 58.5586 18.1349 56.0346 18.1349C54.2876 18.1349 52.7672 19.0735 52.0227 20.529Z" fill="#7913E5"/>
<path d="M67.1295 9.78575C67.1295 8.36267 68.1643 7.29457 69.5563 7.29457C70.9472 7.29457 72.0802 8.36162 72.0802 9.78575C72.0802 11.1441 70.9482 12.2769 69.5563 12.2769C68.1643 12.2759 67.1295 11.1441 67.1295 9.78575ZM67.3885 14.2847H71.7565V30.8146H67.3885V14.2847Z" fill="#7913E5"/>
<path d="M74.3432 22.5019C74.3432 17.9403 77.9019 14.0918 82.8192 14.0918C84.4367 14.0918 85.9247 14.5126 87.1872 15.1913V14.285H91.4581V29.8763C91.4581 34.179 87.7375 36.5073 83.0792 36.5073C80.0384 36.5073 77.126 35.602 75.2172 34.1132L76.9966 31.0404C78.5817 32.1075 80.7495 32.7872 83.0792 32.7872C86.0876 32.7872 87.0264 31.5907 87.1559 29.6497C85.8621 30.4589 84.374 30.9433 82.8202 30.9433C77.8695 30.9444 74.3432 27.2567 74.3432 22.5019ZM87.1872 24.3458V20.6581C86.4427 19.1055 84.8899 18.0698 83.1429 18.0698C80.619 18.0698 78.6454 20.0755 78.6454 22.5019C78.6454 25.0578 80.5866 26.837 83.1105 26.837C84.9546 26.8359 86.4103 25.8983 87.1872 24.3458Z" fill="#7913E5"/>
<path d="M94.0431 22.5019C94.0431 17.9403 97.6018 14.0918 102.519 14.0918C104.137 14.0918 105.625 14.5126 106.887 15.1913V14.285H111.158V29.8763C111.158 34.179 107.437 36.5073 102.779 36.5073C99.7383 36.5073 96.826 35.602 94.9172 34.1132L96.6965 31.0404C98.2816 32.1075 100.449 32.7872 102.779 32.7872C105.788 32.7872 106.726 31.5907 106.856 29.6497C105.562 30.4589 104.074 30.9433 102.52 30.9433C97.5695 30.9444 94.0431 27.2567 94.0431 22.5019ZM106.887 24.3458V20.6581C106.143 19.1055 104.59 18.0698 102.843 18.0698C100.319 18.0698 98.3453 20.0755 98.3453 22.5019C98.3453 25.0578 100.287 26.837 102.81 26.837C104.655 26.8359 106.11 25.8983 106.887 24.3458Z" fill="#7913E5"/>
<path d="M117.431 14.2847L121.767 25.3154L126.232 14.2847H130.762L121.25 36.6051H117.206L119.6 30.6528L112.644 14.2847H117.431Z" fill="#7913E5"/>
<path d="M129.949 14.2847H134.575L138.781 25.4449L142.955 14.2847H147.485L140.853 30.8146H136.517L129.949 14.2847Z" fill="#7913E5"/>
<path d="M147.806 22.4374C147.806 17.7798 151.138 13.9302 156.346 13.9302C161.167 13.9302 164.823 17.5532 164.92 22.308C164.952 22.6964 164.952 23.1171 164.92 23.5369H151.881C152.011 25.8662 154.243 27.3864 156.637 27.3864C158.61 27.3864 159.775 26.8362 161.134 25.7044L163.496 28.1956C161.587 30.2013 159.679 31.1389 156.638 31.1389C151.041 31.1389 147.806 26.9656 147.806 22.4374ZM152.108 20.4641H160.454C160.034 18.9116 158.546 17.5532 156.281 17.5532C153.661 17.5532 152.561 18.8792 152.108 20.4641Z" fill="#7913E5"/>
<path d="M165.823 29.0356L167.926 25.6068C169.802 26.8357 172.035 27.5801 174.331 27.5801C176.499 27.5801 177.598 27.0299 177.598 26.0923C177.598 25.4773 177.08 25.0252 175.981 24.7987L171.451 23.8287C168.119 23.1166 166.598 21.5317 166.598 18.9445C166.598 16.1954 168.928 13.8984 173.748 13.8984C176.66 13.8984 179.248 14.74 181.028 15.8394L179.054 19.1387C177.598 18.3619 175.657 17.5214 173.619 17.5214C171.775 17.5214 170.707 17.9745 170.707 18.815C170.707 19.3653 171.096 19.7213 172.163 19.9144L175.981 20.6265C180.122 21.4357 181.707 23.2795 181.707 25.7697C181.707 29.3603 178.116 31.2365 174.201 31.2365C171.065 31.2354 168.541 30.5881 165.823 29.0356Z" fill="#7913E5"/>
<path d="M185.038 14.285V9.72442L189.342 6.94298V14.286H191.864V18.0385H189.341V30.816H185.037V18.0374H182.578V14.285H185.038Z" fill="#7913E5"/>
<path d="M36.955 16.9433C36.8777 15.8835 36.7169 14.8468 36.4402 13.8257C35.2111 9.27972 32.6225 5.71626 28.667 3.16661C26.1483 1.52949 23.3602 0.623223 20.357 0.385172C19.1049 0.293292 17.8686 0.330879 16.6238 0.485404C15.3102 0.661854 14.0352 0.968814 12.7988 1.41464C7.34585 3.39631 3.15117 7.90362 1.58483 13.4947C1.2465 14.7006 1.04705 15.9295 0.962465 17.1813C0.923828 17.8266 0.923828 18.4718 0.923828 19.1171V34.7992C0.923828 35.6439 1.6078 36.3351 2.45989 36.3351H8.51956C9.31109 36.3351 9.96373 35.7284 10.0483 34.96C10.0483 34.96 10.0483 34.96 10.0483 34.9527C10.087 34.8065 10.1099 34.653 10.1099 34.4996V34.1383C10.1099 34.108 10.1026 34.0851 10.1099 34.0537V34.0308C10.1632 34.0381 10.1945 34.0694 10.2248 34.0851C12.5211 35.3442 14.9719 36.0813 17.5835 36.2818C18.6131 36.3591 19.65 36.3507 20.6943 36.2515C21.6236 36.1596 22.5457 36.0135 23.4594 35.7754C27.3846 34.7386 30.6259 32.6421 33.153 29.4472C35.3271 26.6982 36.5707 23.5565 36.9247 20.0703C37.0323 19.0241 37.0396 17.9874 36.955 16.9433ZM22.1781 26.9644C22.1551 27.0793 22.0632 27.1565 21.9473 27.1565H15.9869C15.8793 27.1565 15.7791 27.0793 15.7561 26.9644L15.7488 26.9258V26.7034C15.7488 26.4194 15.7791 26.1584 15.8407 25.889C15.8793 25.7971 15.9023 25.6896 15.9409 25.5893C15.9712 25.4891 16.0182 25.3972 16.0558 25.297C16.109 25.2051 16.156 25.1122 16.2093 25.0287C16.2396 24.9827 16.2636 24.9441 16.2939 24.8982C16.3471 24.8136 16.4171 24.729 16.4787 24.6528C16.5476 24.5682 16.6165 24.492 16.6865 24.4148C17.0394 24.0692 17.478 23.7925 17.9615 23.639C17.3005 23.2861 16.8557 22.5793 16.8557 21.7805C16.8557 20.6132 17.8007 19.6683 18.9681 19.661C19.5519 19.661 20.0823 19.9064 20.4656 20.2833C20.8498 20.6675 21.0879 21.1969 21.0879 21.7805C21.0879 22.5793 20.6347 23.2861 19.9821 23.639C21.2644 24.0619 22.1938 25.2667 22.1938 26.7034C22.1927 26.788 22.1854 26.8809 22.1781 26.9644ZM32.4857 13.9405H5.44848C5.23337 13.9405 5.07987 13.7254 5.14879 13.5177C7.15371 7.8274 12.5837 3.74086 18.9671 3.74086C25.3505 3.74086 30.7805 7.82635 32.7844 13.5177C32.8543 13.7254 32.7008 13.9405 32.4857 13.9405Z" fill="#7913E5"/>
</svg>
